ffmpeg version N-80955-g5939878 Copyright (c) 2000-2016 the FFmpeg developers
  built with gcc 5.4.0 (GCC)
  configuration: --enable-gpl --enable-version3 --disable-w32threads --enable-dxva2 --enable-libmfx --enable-nvenc --enable-avisynth --enable-bzlib --enable-fontconfig --enable-frei0r --enable-gnutls --enable-iconv --enable-libass --enable-libbluray --enable-libbs2b --enable-libcaca --enable-libfreetype --enable-libgme --enable-libgsm --enable-libilbc --enable-libmodplug --enable-libmp3lame --enable-libopencore-amrnb --enable-libopencore-amrwb --enable-libopenjpeg --enable-libopus --enable-librtmp --enable-libschroedinger --enable-libsnappy --enable-libsoxr --enable-libspeex --enable-libtheora --enable-libtwolame --enable-libvidstab --enable-libvo-amrwbenc --enable-libvorbis --enable-libvpx --enable-libwavpack --enable-libwebp --enable-libx264 --enable-libx265 --enable-libxavs --enable-libxvid --enable-libzimg --enable-lzma --enable-decklink --enable-zlib
  libavutil      55. 28.100 / 55. 28.100
  libavcodec     57. 50.100 / 57. 50.100
  libavformat    57. 41.100 / 57. 41.100
  libavdevice    57.  0.102 / 57.  0.102
  libavfilter     6. 47.100 /  6. 47.100
  libswscale      4.  1.100 /  4.  1.100
  libswresample   2.  1.100 /  2.  1.100
  libpostproc    54.  0.100 / 54.  0.100
Input #0, image2pipe, from 'pipe:':
  Duration: N/A, bitrate: N/A
    Stream #0:0: Video: ppm, rgb24, 320x240, 48 fps, 48 tbr, 48 tbn, 48 tbc
[libx264 @ 0000000002844a20] using cpu capabilities: MMX2 SSE2Fast SSSE3 SSE4.2 AVX FMA3 AVX2 LZCNT BMI2
[libx264 @ 0000000002844a20] profile High, level 2.1
[libx264 @ 0000000002844a20] 264 - core 148 r2705 3f5ed56 - H.264/MPEG-4 AVC codec - Copyleft 2003-2016 - http://www.videolan.org/x264.html - options: cabac=1 ref=3 deblock=1:0:0 analyse=0x3:0x113 me=hex subme=7 psy=1 psy_rd=1.00:0.00 mixed_ref=1 me_range=16 chroma_me=1 trellis=1 8x8dct=1 cqm=0 deadzone=21,11 fast_pskip=1 chroma_qp_offset=-2 threads=6 lookahead_threads=1 sliced_threads=0 nr=0 decimate=1 interlaced=0 bluray_compat=0 constrained_intra=0 bframes=3 b_pyramid=2 b_adapt=1 b_bias=0 direct=1 weightb=1 open_gop=0 weightp=2 keyint=250 keyint_min=25 scenecut=40 intra_refresh=0 rc_lookahead=40 rc=abr mbtree=1 bitrate=400 ratetol=1.0 qcomp=0.60 qpmin=0 qpmax=69 qpstep=4 ip_ratio=1.40 aq=1:1.00
[mp4 @ 0000000002843580] Using AVStream.codec to pass codec parameters to muxers is deprecated, use AVStream.codecpar instead.
Output #0, mp4, to '.\mission_records\e0e1d042-d12c-44e6-bada-b9e2407640a5\video.mp4':
  Metadata:
    encoder         : Lavf57.41.100
    Stream #0:0: Video: h264 (libx264) ([33][0][0][0] / 0x0021), yuv420p, 320x240, q=-1--1, 400 kb/s, 48 fps, 12288 tbn, 48 tbc
    Metadata:
      encoder         : Lavc57.50.100 libx264
    Side data:
      cpb: bitrate max/min/avg: 0/0/400000 buffer size: 0 vbv_delay: -1
Stream mapping:
  Stream #0:0 -> #0:0 (ppm (native) -> h264 (libx264))
frame=   44 fps=0.0 q=0.0 size=       0kB time=00:00:00.00 bitrate=N/A speed=   0x    frame=   61 fps= 58 q=26.0 size=       3kB time=00:00:00.16 bitrate= 159.7kbits/s speed=0.158x    frame=   80 fps= 50 q=38.0 size=      57kB time=00:00:00.56 bitrate= 834.8kbits/s speed=0.354x    frame=   96 fps= 46 q=36.0 size=      65kB time=00:00:00.89 bitrate= 590.4kbits/s speed=0.426x    frame=  111 fps= 43 q=36.0 size=      83kB time=00:00:01.20 bitrate= 563.7kbits/s speed=0.464x    frame=  127 fps= 41 q=37.0 size=     103kB time=00:00:01.54 bitrate= 548.1kbits/s speed=0.494x    frame=  142 fps= 39 q=38.0 size=     122kB time=00:00:01.85 bitrate= 538.1kbits/s speed=0.512x    frame=  158 fps= 38 q=39.0 size=     146kB time=00:00:02.18 bitrate= 547.3kbits/s speed=0.529x    frame=  174 fps= 37 q=39.0 size=     163kB time=00:00:02.52 bitrate= 531.0kbits/s speed=0.542x    frame=  191 fps= 37 q=39.0 size=     186kB time=00:00:02.87 bitrate= 531.4kbits/s speed=0.554x    frame=  208 fps= 36 q=39.0 size=     200kB time=00:00:03.22 bitrate= 508.1kbits/s speed=0.566x    frame=  224 fps= 36 q=39.0 size=     216kB time=00:00:03.56 bitrate= 496.9kbits/s speed=0.573x    frame=  239 fps= 36 q=39.0 size=     232kB time=00:00:03.87 bitrate= 491.0kbits/s speed=0.576x    frame=  253 fps= 35 q=36.0 size=     247kB time=00:00:04.16 bitrate= 485.8kbits/s speed=0.576x    frame=  270 fps= 35 q=39.0 size=     266kB time=00:00:04.52 bitrate= 482.3kbits/s speed=0.583x    frame=  286 fps= 35 q=39.0 size=     279kB time=00:00:04.85 bitrate= 471.3kbits/s speed=0.587x    frame=  300 fps= 34 q=39.0 size=     300kB time=00:00:05.14 bitrate= 477.0kbits/s speed=0.586x    frame=  315 fps= 34 q=39.0 size=     311kB time=00:00:05.45 bitrate= 466.4kbits/s speed=0.588x    frame=  333 fps= 34 q=39.0 size=     328kB time=00:00:05.83 bitrate= 461.3kbits/s speed=0.595x    frame=  349 fps= 34 q=39.0 size=     342kB time=00:00:06.16 bitrate= 454.3kbits/s speed=0.598x    frame=  365 fps= 34 q=39.0 size=     358kB time=00:00:06.50 bitrate= 450.8kbits/s speed= 0.6x    frame=  383 fps= 34 q=39.0 size=     376kB time=00:00:06.87 bitrate= 447.6kbits/s speed=0.606x    frame=  398 fps= 34 q=39.0 size=     395kB time=00:00:07.18 bitrate= 449.9kbits/s speed=0.606x    frame=  415 fps= 33 q=39.0 size=     415kB time=00:00:07.54 bitrate= 450.5kbits/s speed=0.609x    frame=  431 fps= 33 q=39.0 size=     430kB time=00:00:07.87 bitrate= 447.3kbits/s speed=0.61x    frame=  449 fps= 33 q=39.0 size=     447kB time=00:00:08.25 bitrate= 443.5kbits/s speed=0.614x    frame=  466 fps= 33 q=36.0 size=     464kB time=00:00:08.60 bitrate= 441.4kbits/s speed=0.616x    frame=  482 fps= 33 q=39.0 size=     482kB time=00:00:08.93 bitrate= 442.2kbits/s speed=0.618x    frame=  499 fps= 33 q=36.0 size=     496kB time=00:00:09.29 bitrate= 437.3kbits/s speed=0.619x    frame=  517 fps= 33 q=39.0 size=     518kB time=00:00:09.66 bitrate= 439.0kbits/s speed=0.622x    frame=  533 fps= 33 q=39.0 size=     537kB time=00:00:10.00 bitrate= 439.9kbits/s speed=0.623x    frame=  550 fps= 33 q=39.0 size=     554kB time=00:00:10.35 bitrate= 438.1kbits/s speed=0.625x    frame=  566 fps= 33 q=37.0 size=     567kB time=00:00:10.68 bitrate= 434.6kbits/s speed=0.626x    frame=  583 fps= 33 q=39.0 size=     584kB time=00:00:11.04 bitrate= 433.5kbits/s speed=0.627x    frame=  599 fps= 33 q=39.0 size=     600kB time=00:00:11.37 bitrate= 432.4kbits/s speed=0.628x    frame=  616 fps= 33 q=39.0 size=     618kB time=00:00:11.72 bitrate= 431.6kbits/s speed=0.629x    frame=  633 fps= 33 q=39.0 size=     639kB time=00:00:12.08 bitrate= 433.0kbits/s speed=0.631x    frame=  649 fps= 33 q=39.0 size=     655kB time=00:00:12.41 bitrate= 432.3kbits/s speed=0.631x    frame=  665 fps= 33 q=39.0 size=     670kB time=00:00:12.75 bitrate= 430.7kbits/s speed=0.632x    frame=  682 fps= 33 q=39.0 size=     686kB time=00:00:13.10 bitrate= 429.1kbits/s speed=0.633x    frame=  698 fps= 33 q=39.0 size=     702kB time=00:00:13.43 bitrate= 428.2kbits/s speed=0.634x    frame=  714 fps= 33 q=39.0 size=     717kB time=00:00:13.77 bitrate= 426.3kbits/s speed=0.634x    frame=  729 fps= 33 q=39.0 size=     730kB time=00:00:14.08 bitrate= 424.4kbits/s speed=0.634x    frame=  744 fps= 33 q=39.0 size=     746kB time=00:00:14.39 bitrate= 424.5kbits/s speed=0.634x    frame=  760 fps= 33 q=39.0 size=     760kB time=00:00:14.72 bitrate= 422.8kbits/s speed=0.633x    frame=  775 fps= 33 q=39.0 size=     775kB time=00:00:15.04 bitrate= 422.1kbits/s speed=0.633x    frame=  791 fps= 33 q=39.0 size=     793kB time=00:00:15.37 bitrate= 422.3kbits/s speed=0.633x    frame=  807 fps= 33 q=39.0 size=     808kB time=00:00:15.70 bitrate= 421.3kbits/s speed=0.633x    frame=  807 fps= 32 q=-1.0 Lsize=     865kB time=00:00:16.75 bitrate= 423.2kbits/s speed=0.672x    
video:856kB audio:0kB subtitle:0kB other streams:0kB global headers:0kB muxing overhead: 1.099024%
[libx264 @ 0000000002844a20] frame I:51    Avg QP:36.19  size:  3685
[libx264 @ 0000000002844a20] frame P:274   Avg QP:39.98  size:  1198
[libx264 @ 0000000002844a20] frame B:482   Avg QP:40.50  size:   746
[libx264 @ 0000000002844a20] consecutive B-frames: 19.0%  2.7%  4.5% 73.9%
[libx264 @ 0000000002844a20] mb I  I16..4: 24.2% 26.1% 49.8%
[libx264 @ 0000000002844a20] mb P  I16..4:  3.8%  5.7%  6.1%  P16..4: 34.4%  9.9% 11.7%  0.0%  0.0%    skip:28.3%
[libx264 @ 0000000002844a20] mb B  I16..4:  0.5%  0.3%  0.2%  B16..8: 42.1%  4.5%  0.7%  direct:10.1%  skip:41.5%  L0:49.6% L1:49.5% BI: 0.9%
[libx264 @ 0000000002844a20] final ratefactor: 30.81
[libx264 @ 0000000002844a20] 8x8 transform intra:30.7% inter:41.2%
[libx264 @ 0000000002844a20] coded y,uvDC,uvAC intra: 65.3% 10.5% 0.7% inter: 14.5% 1.0% 0.0%
[libx264 @ 0000000002844a20] i16 v,h,dc,p: 26% 25% 41%  8%
[libx264 @ 0000000002844a20] i8 v,h,dc,ddl,ddr,vr,hd,vl,hu: 10% 12% 48%  6%  5%  4%  6%  3%  5%
[libx264 @ 0000000002844a20] i4 v,h,dc,ddl,ddr,vr,hd,vl,hu: 21% 17% 45%  3%  3%  2%  3%  2%  3%
[libx264 @ 0000000002844a20] i8c dc,h,v,p: 89% 10%  1%  0%
[libx264 @ 0000000002844a20] Weighted P-Frames: Y:17.9% UV:2.2%
[libx264 @ 0000000002844a20] ref P L0: 55.9%  7.8% 19.7% 13.3%  3.2%
[libx264 @ 0000000002844a20] ref B L0: 81.5% 14.0%  4.4%
[libx264 @ 0000000002844a20] ref B L1: 91.8%  8.2%
[libx264 @ 0000000002844a20] kb/s:416.74
6 bitrate= 411.0kbits/s speed=0.793x    frame=  716 fps= 21 q=36.0 size=    1385kB time=00:00:27.62 bitrate= 410.8kbits/s speed=0.794x    frame=  726 fps= 21 q=36.0 size=    1403kB time=00:00:28.04 bitrate= 409.8kbits/s speed=0.794x    frame=  737 fps= 21 q=36.0 size=    1423kB time=00:00:28.50 bitrate= 409.0kbits/s speed=0.795x    frame=  748 fps= 21 q=36.0 size=    1445kB time=00:00:28.95 bitrate= 408.8kbits/s speed=0.796x    frame=  758 fps= 21 q=36.0 size=    1466kB time=00:00:29.37 bitrate= 408.8kbits/s speed=0.796x    frame=  768 fps= 21 q=36.0 size=    1485kB time=00:00:29.79 bitrate= 408.5kbits/s speed=0.797x    frame=  779 fps= 21 q=36.0 size=    1507kB time=00:00:30.25 bitrate= 408.1kbits/s speed=0.797x    frame=  789 fps= 21 q=36.0 size=    1525kB time=00:00:30.66 bitrate= 407.5kbits/s speed=0.798x    frame=  799 fps= 21 q=36.0 size=    1545kB time=00:00:31.08 bitrate= 407.3kbits/s speed=0.798x    frame=  810 fps= 21 q=36.0 size=    1572kB time=00:00:31.54 bitrate= 408.3kbits/s speed=0.799x    frame=  820 fps= 21 q=36.0 size=    1593kB time=00:00:31.95 bitrate= 408.4kbits/s speed=0.799x    frame=  830 fps= 20 q=36.0 size=    1612kB time=00:00:32.37 bitrate= 408.0kbits/s speed= 0.8x    frame=  841 fps= 20 q=36.0 size=    1635kB time=00:00:32.83 bitrate= 408.0kbits/s speed= 0.8x    frame=  851 fps= 20 q=36.0 size=    1657kB time=00:00:33.25 bitrate= 408.1kbits/s speed= 0.8x    frame=  862 fps= 20 q=36.0 size=    1678kB time=00:00:33.70 bitrate= 407.8kbits/s speed=0.801x    frame=  873 fps= 20 q=36.0 size=    1698kB time=00:00:34.16 bitrate= 407.2kbits/s speed=0.801x    frame=  884 fps= 20 q=36.0 size=    1721kB time=00:00:34.62 bitrate= 407.3kbits/s speed=0.801x    frame=  894 fps= 20 q=36.0 size=    1740kB time=00:00:35.04 bitrate= 406.8kbits/s speed=0.802x    frame=  905 fps= 20 q=36.0 size=    1763kB time=00:00:35.50 bitrate= 406.9kbits/s speed=0.802x    frame=  916 fps= 20 q=36.0 size=    1791kB time=00:00:35.95 bitrate= 407.9kbits/s speed=0.802x    frame=  926 fps= 20 q=36.0 size=    1810kB time=00:00:36.37 bitrate= 407.5kbits/s speed=0.803x    frame=  935 fps= 20 q=36.0 size=    1827kB time=00:00:36.75 bitrate= 407.3kbits/s speed=0.802x    frame=  945 fps= 20 q=36.0 size=    1846kB time=00:00:37.16 bitrate= 406.9kbits/s speed=0.802x    frame=  956 fps= 20 q=36.0 size=    1867kB time=00:00:37.62 bitrate= 406.5kbits/s speed=0.802x    frame=  967 fps= 20 q=36.0 size=    1888kB time=00:00:38.08 bitrate= 406.1kbits/s speed=0.802x    frame=  973 fps= 20 q=36.0 size=    1900kB time=00:00:38.33 bitrate= 406.1kbits/s speed=0.799x    frame=  984 fps= 20 q=36.0 size=    1921kB time=00:00:38.79 bitrate= 405.7kbits/s speed=0.799x    frame=  994 fps= 20 q=36.0 size=    1939kB time=00:00:39.20 bitrate= 405.0kbits/s speed= 0.8x    frame= 1004 fps= 20 q=36.0 size=    1961kB time=00:00:39.62 bitrate= 405.3kbits/s speed= 0.8x    frame= 1015 fps= 20 q=36.0 size=    1988kB time=00:00:40.08 bitrate= 406.3kbits/s speed=0.799x    frame= 1026 fps= 20 q=36.0 size=    2012kB time=00:00:40.54 bitrate= 406.5kbits/s speed= 0.8x    frame= 1037 fps= 20 q=36.0 size=    2032kB time=00:00:41.00 bitrate= 406.0kbits/s speed=0.801x    frame= 1048 fps= 20 q=36.0 size=    2051kB time=00:00:41.45 bitrate= 405.2kbits/s speed=0.801x    frame= 1058 fps= 20 q=36.0 size=    2072kB time=00:00:41.87 bitrate= 405.4kbits/s speed=0.801x    frame= 1069 fps= 20 q=36.0 size=    2095kB time=00:00:42.33 bitrate= 405.4kbits/s speed=0.802x    frame= 1079 fps= 20 q=36.0 size=    2116kB time=00:00:42.75 bitrate= 405.4kbits/s speed=0.802x    frame= 1090 fps= 20 q=36.0 size=    2138kB time=00:00:43.20 bitrate= 405.4kbits/s speed=0.802x    frame= 1100 fps= 20 q=36.0 size=    2163kB time=00:00:43.62 bitrate= 406.2kbits/s speed=0.802x    frame= 1111 fps= 20 q=36.0 size=    2185kB time=00:00:44.08 bitrate= 406.1kbits/s speed=0.803x    frame= 1121 fps= 20 q=36.0 size=    2207kB time=00:00:44.50 bitrate= 406.2kbits/s speed=0.803x    frame= 1132 fps= 20 q=36.0 size=    2229kB time=00:00:44.95 bitrate= 406.1kbits/s speed=0.803x    frame= 1142 fps= 20 q=36.0 size=    2250kB time=00:00:45.37 bitrate= 406.2kbits/s speed=0.804x    frame= 1153 fps= 20 q=36.0 size=    2270kB time=00:00:45.83 bitrate= 405.7kbits/s speed=0.804x    frame= 1163 fps= 20 q=36.0 size=    2289kB time=00:00:46.25 bitrate= 405.4kbits/s speed=0.804x    frame= 1174 fps= 20 q=36.0 size=    2312kB time=00:00:46.70 bitrate= 405.5kbits/s speed=0.804x    frame= 1185 fps= 20 q=36.0 size=    2335kB time=00:00:47.16 bitrate= 405.5kbits/s speed=0.804x    frame= 1195 fps= 20 q=36.0 size=    2355kB time=00:00:47.58 bitrate= 405.5kbits/s speed=0.805x    frame= 1206 fps= 20 q=36.0 size=    2382kB time=00:00:48.04 bitrate= 406.2kbits/s speed=0.805x    frame= 1215 fps= 20 q=36.0 size=    2401kB time=00:00:48.41 bitrate= 406.2kbits/s speed=0.804x    frame= 1227 fps= 20 q=36.0 size=    2422kB time=00:00:48.91 bitrate= 405.7kbits/s speed=0.805x    frame= 1237 fps= 20 q=36.0 size=    2442kB time=00:00:49.33 bitrate= 405.5kbits/s speed=0.806x    frame= 1247 fps= 20 q=36.0 size=    2462kB time=00:00:49.75 bitrate= 405.4kbits/s speed=0.806x    frame= 1258 fps= 20 q=36.0 size=    2484kB time=00:00:50.20 bitrate= 405.2kbits/s speed=0.806x    frame= 1268 fps= 20 q=36.0 size=    2502kB time=00:00:50.62 bitrate= 404.9kbits/s speed=0.806x    frame= 1279 fps= 20 q=36.0 size=    2524kB time=00:00:51.08 bitrate= 404.8kbits/s speed=0.806x    frame= 1289 fps= 20 q=36.0 size=    2546kB time=00:00:51.50 bitrate= 404.9kbits/s speed=0.807x    frame= 1299 fps= 20 q=36.0 size=    2566kB time=00:00:51.91 bitrate= 404.8kbits/s speed=0.807x    frame= 1310 fps= 20 q=36.0 size=    2587kB time=00:00:52.37 bitrate= 404.7kbits/s speed=0.807x    frame= 1320 fps= 20 q=36.0 size=    2607kB time=00:00:52.79 bitrate= 404.6kbits/s speed=0.807x    frame= 1331 fps= 20 q=36.0 size=    2629kB time=00:00:53.25 bitrate= 404.4kbits/s speed=0.807x    frame= 1341 fps= 20 q=36.0 size=    2652kB time=00:00:53.66 bitrate= 404.8kbits/s speed=0.808x    frame= 1351 fps= 20 q=36.0 size=    2674kB time=00:00:54.08 bitrate= 405.0kbits/s speed=0.808x    frame= 1362 fps= 20 q=36.0 size=    2694kB time=00:00:54.54 bitrate= 404.7kbits/s speed=0.808x    frame= 1373 fps= 20 q=36.0 size=    2715kB time=00:00:55.00 bitrate= 404.4kbits/s speed=0.808x    frame= 1383 fps= 20 q=36.0 size=    2736kB time=00:00:55.41 bitrate= 404.4kbits/s speed=0.809x    frame= 1393 fps= 20 q=36.0 size=    2754kB time=00:00:55.83 bitrate= 404.1kbits/s speed=0.809x    frame= 1404 fps= 20 q=36.0 size=    2779kB time=00:00:56.29 bitrate= 404.4kbits/s speed=0.809x    frame= 1415 fps= 20 q=36.0 size=    2799kB time=00:00:56.75 bitrate= 404.1kbits/s speed=0.809x    frame= 1425 fps= 20 q=36.0 size=    2816kB time=00:00:57.16 bitrate= 403.6kbits/s speed=0.809x    frame= 1436 fps= 20 q=36.0 size=    2839kB time=00:00:57.62 bitrate= 403.5kbits/s speed=0.809x    frame= 1446 fps= 20 q=36.0 size=    2859kB time=00:00:58.04 bitrate= 403.5kbits/s speed=0.809x    frame= 1456 fps= 20 q=36.0 size=    2883kB time=00:00:58.45 bitrate= 404.0kbits/s speed=0.809x    frame= 1467 fps= 20 q=36.0 size=    2906kB time=00:00:58.91 bitrate= 404.0kbits/s speed=0.81x    frame= 1477 fps= 20 q=36.0 size=    2923kB time=00:00:59.33 bitrate= 403.6kbits/s speed=0.81x    frame= 1487 fps= 20 q=36.0 size=    2944kB time=00:00:59.75 bitrate= 403.6kbits/s speed=0.81x    frame= 1496 fps= 20 q=36.0 size=    2963kB time=00:01:00.12 bitrate= 403.7kbits/s speed=0.809x    frame= 1506 fps= 20 q=36.0 size=    2984kB time=00:01:00.54 bitrate= 403.7kbits/s speed=0.809x    frame= 1517 fps= 20 q=36.0 size=    3006kB time=00:01:01.00 bitrate= 403.7kbits/s speed=0.809x    frame= 1527 fps= 20 q=36.0 size=    3027kB time=00:01:01.41 bitrate= 403.7kbits/s speed=0.809x    frame= 1538 fps= 20 q=36.0 size=    3051kB time=00:01:01.87 bitrate= 404.0kbits/s speed=0.809x    frame= 1548 fps= 20 q=33.0 size=    3071kB time=00:01:02.29 bitrate= 403.8kbits/s speed=0.81x    frame= 1558 fps= 20 q=36.0 size=    3096kB time=00:01:02.70 bitrate= 404.5kbits/s speed=0.81x    frame= 1568 fps= 20 q=36.0 size=    3113kB time=00:01:03.12 bitrate= 404.0kbits/s speed=0.81x    frame= 1579 fps= 20 q=36.0 size=    3132kB time=00:01:03.58 bitrate= 403.6kbits/s speed=0.81x    frame= 1589 fps= 20 q=36.0 size=    3149kB time=00:01:04.00 bitrate= 403.1kbits/s speed=0.81x    frame= 1599 fps= 20 q=36.0 size=    3170kB time=00:01:04.41 bitrate= 403.2kbits/s speed=0.81x    frame= 1609 fps= 20 q=36.0 size=    3190kB time=00:01:04.83 bitrate= 403.1kbits/s speed=0.81x    frame= 1619 fps= 20 q=36.0 size=    3211kB time=00:01:05.25 bitrate= 403.1kbits/s speed=0.81x    frame= 1629 fps= 20 q=36.0 size=    3228kB time=00:01:05.66 bitrate= 402.8kbits/s speed=0.811x    frame= 1639 fps= 20 q=36.0 size=    3250kB time=00:01:06.08 bitrate= 402.9kbits/s speed=0.811x    frame= 1649 fps= 20 q=36.0 size=    3270kB time=00:01:06.50 bitrate= 402.8kbits/s speed=0.811x    frame= 1659 fps= 20 q=36.0 size=    3291kB time=00:01:06.91 bitrate= 402.8kbits/s speed=0.811x    frame= 1669 fps= 20 q=36.0 size=    3307kB time=00:01:07.33 bitrate= 402.3kbits/s speed=0.811x    frame= 1680 fps= 20 q=36.0 size=    3330kB time=00:01:07.79 bitrate= 402.5kbits/s speed=0.811x    frame= 1691 fps= 20 q=36.0 size=    3359kB time=00:01:08.25 bitrate= 403.2kbits/s speed=0.811x    frame= 1701 fps= 20 q=36.0 size=    3378kB time=00:01:08.66 bitrate= 402.9kbits/s speed=0.811x    frame= 1712 fps= 20 q=36.0 size=    3398kB time=00:01:09.12 bitrate= 402.7kbits/s speed=0.811x    frame= 1723 fps= 20 q=36.0 size=    3420kB time=00:01:09.58 bitrate= 402.6kbits/s speed=0.812x    frame= 1733 fps= 20 q=36.0 size=    3439kB time=00:01:10.00 bitrate= 402.4kbits/s speed=0.812x    frame= 1743 fps= 20 q=36.0 size=    3456kB time=00:01:10.41 bitrate= 402.1kbits/s speed=0.812x    frame= 1753 fps= 20 q=36.0 size=    3478kB time=00:01:10.83 bitrate= 402.2kbits/s speed=0.812x    frame= 1764 fps= 20 q=36.0 size=    3500kB time=00:01:11.29 bitrate= 402.2kbits/s speed=0.812x    frame= 1775 fps= 20 q=36.0 size=    3524kB time=00:01:11.75 bitrate= 402.3kbits/s speed=0.812x    frame= 1786 fps= 20 q=36.0 size=    3546kB time=00:01:12.20 bitrate= 402.3kbits/s speed=0.812x    frame= 1797 fps= 20 q=36.0 size=    3570kB time=00:01:12.66 bitrate= 402.4kbits/s speed=0.812x    frame= 1808 fps= 20 q=36.0 size=    3590kB time=00:01:13.12 bitrate= 402.1kbits/s speed=0.812x    frame= 1820 fps= 20 q=36.0 size=    3613kB time=00:01:13.62 bitrate= 402.1kbits/s speed=0.812x    frame= 1830 fps= 20 q=36.0 size=    3631kB time=00:01:14.04 bitrate= 401.8kbits/s speed=0.813x    frame= 1840 fps= 20 q=36.0 size=    3654kB time=00:01:14.45 bitrate= 402.0kbits/s speed=0.813x    frame= 1851 fps= 20 q=36.0 size=    3682kB time=00:01:14.91 bitrate= 402.6kbits/s speed=0.813x    frame= 1861 fps= 20 q=36.0 size=    3702kB time=00:01:15.33 bitrate= 402.6kbits/s speed=0.813x    frame= 1872 fps= 20 q=36.0 size=    3727kB time=00:01:15.79 bitrate= 402.8kbits/s speed=0.813x    frame= 1883 fps= 20 q=36.0 size=    3747kB time=00:01:16.25 bitrate= 402.6kbits/s speed=0.813x    frame= 1893 fps= 20 q=36.0 size=    3768kB time=00:01:16.66 bitrate= 402.6kbits/s speed=0.813x    frame= 1904 fps= 20 q=36.0 size=    3791kB time=00:01:17.12 bitrate= 402.6kbits/s speed=0.813x    frame= 1915 fps= 20 q=36.0 size=    3810kB time=00:01:17.58 bitrate= 402.3kbits/s speed=0.813x    frame= 1926 fps= 20 q=36.0 size=    3832kB time=00:01:18.04 bitrate= 402.2kbits/s speed=0.813x    frame= 1936 fps= 20 q=36.0 size=    3851kB time=00:01:18.45 bitrate= 402.1kbits/s speed=0.814x    frame= 1947 fps= 20 q=36.0 size=    3870kB time=00:01:18.91 bitrate= 401.8kbits/s speed=0.814x    frame= 1957 fps= 20 q=36.0 size=    3891kB time=00:01:19.33 bitrate= 401.8kbits/s speed=0.814x    frame= 1968 fps= 20 q=36.0 size=    3913kB time=00:01:19.79 bitrate= 401.8kbits/s speed=0.814x    frame= 1979 fps= 20 q=36.0 size=    3940kB time=00:01:20.25 bitrate= 402.2kbits/s speed=0.814x    frame= 1989 fps= 20 q=36.0 size=    3959kB time=00:01:20.66 bitrate= 402.1kbits/s speed=0.813x    frame= 1989 fps= 20 q=-1.0 Lsize=    4077kB time=00:01:22.75 bitrate= 403.6kbits/s speed=0.833x    
video:4053kB audio:0kB subtitle:0kB other streams:0kB global headers:0kB muxing overhead: 0.591274%
[libx264 @ 00000000028c4a20] frame I:26    Avg QP:32.05  size:  6662
[libx264 @ 00000000028c4a20] frame P:517   Avg QP:36.60  size:  2986
[libx264 @ 00000000028c4a20] frame B:1446  Avg QP:37.58  size:  1682
[libx264 @ 00000000028c4a20] consecutive B-frames:  2.7%  0.7%  1.1% 95.5%
[libx264 @ 00000000028c4a20] mb I  I16..4: 19.7% 25.5% 54.8%
[libx264 @ 00000000028c4a20] mb P  I16..4:  5.3%  7.8% 13.5%  P16..4: 33.7% 20.7% 13.8%  0.0%  0.0%    skip: 5.2%
[libx264 @ 00000000028c4a20] mb B  I16..4:  1.1%  0.5%  0.6%  B16..8: 49.3% 11.9%  3.2%  direct:15.8%  skip:17.6%  L0:49.1% L1:48.2% BI: 2.8%
[libx264 @ 00000000028c4a20] final ratefactor: 30.70
[libx264 @ 00000000028c4a20] 8x8 transform intra:27.5% inter:26.8%
[libx264 @ 00000000028c4a20] coded y,uvDC,uvAC intra: 75.0% 10.2% 0.8% inter: 28.1% 1.1% 0.0%
[libx264 @ 00000000028c4a20] i16 v,h,dc,p: 17% 20% 54%  9%
[libx264 @ 00000000028c4a20] i8 v,h,dc,ddl,ddr,vr,hd,vl,hu:  7% 10% 49%  7%  6%  5%  7%  4%  6%
[libx264 @ 00000000028c4a20] i4 v,h,dc,ddl,ddr,vr,hd,vl,hu: 13% 17% 52%  4%  3%  2%  4%  2%  3%
[libx264 @ 00000000028c4a20] i8c dc,h,v,p: 86% 12%  1%  0%
[libx264 @ 00000000028c4a20] Weighted P-Frames: Y:5.0% UV:1.7%
[libx264 @ 00000000028c4a20] ref P L0: 50.7%  8.8% 23.1% 16.6%  0.8%
[libx264 @ 00000000028c4a20] ref B L0: 84.0% 11.5%  4.5%
[libx264 @ 00000000028c4a20] ref B L1: 94.3%  5.7%
[libx264 @ 00000000028c4a20] kb/s:400.60
